<?xml version="1.0" encoding="UTF-8"?>
<svg xmlns="http://www.w3.org/2000/svg" viewBox="0 0 1800 780">
  <g transform="translate(-146.76 58.37) scale(0.663265)">
    <path fill="#FFFFFF" fill-rule="evenodd" d="M 783.5 138.0 Q 821.0 139.0 848.0 143.0 Q 875.0 147.0 907.5 155.5 Q 940.0 164.0 968.5 175.0 L 997.0 186.0 L 990.5 222.5 L 984.0 259.0 L 948.0 244.5 Q 912.0 230.0 877.0 222.0 Q 842.0 214.0 795.5 211.5 Q 749.0 209.0 716.0 212.5 Q 683.0 216.0 641.5 227.0 Q 600.0 238.0 574.0 249.0 Q 548.0 260.0 530.0 270.0 L 512.0 280.0 L 513.5 314.5 L 515.0 349.0 L 553.0 329.0 Q 591.0 309.0 631.5 296.0 Q 672.0 283.0 712.0 278.0 Q 752.0 273.0 787.5 274.5 Q 823.0 276.0 858.5 283.5 Q 894.0 291.0 916.5 299.0 Q 939.0 307.0 957.5 316.0 Q 976.0 325.0 1004.0 344.0 Q 1032.0 363.0 1055.0 387.5 Q 1078.0 412.0 1070.5 448.0 Q 1063.0 484.0 1050.0 521.0 Q 1037.0 558.0 1021.0 590.5 Q 1005.0 623.0 989.0 648.5 Q 973.0 674.0 951.5 701.5 Q 930.0 729.0 908.0 752.0 Q 886.0 775.0 859.5 797.5 Q 833.0 820.0 801.0 841.5 L 769.0 863.0 L 748.0 850.0 Q 727.0 837.0 704.0 819.5 Q 681.0 802.0 660.0 783.0 Q 639.0 764.0 620.5 744.0 Q 602.0 724.0 585.5 703.0 Q 569.0 682.0 553.0 657.5 Q 537.0 633.0 520.5 601.5 Q 504.0 570.0 497.0 552.5 L 490.0 535.0 L 516.0 512.0 Q 542.0 489.0 568.0 472.0 Q 594.0 455.0 622.5 442.0 Q 651.0 429.0 678.5 421.5 Q 706.0 414.0 725.5 411.5 Q 745.0 409.0 768.0 409.0 Q 791.0 409.0 807.5 411.0 Q 824.0 413.0 856.0 422.0 Q 888.0 431.0 914.5 444.5 L 941.0 458.0 L 937.5 470.5 Q 934.0 483.0 925.0 503.5 L 916.0 524.0 L 899.0 514.0 Q 882.0 504.0 859.0 495.5 Q 836.0 487.0 813.0 483.0 Q 790.0 479.0 768.0 479.0 Q 746.0 479.0 720.5 483.5 Q 695.0 488.0 675.5 495.0 Q 656.0 502.0 637.5 511.5 Q 619.0 521.0 596.5 537.0 L 574.0 553.0 L 579.0 565.5 Q 584.0 578.0 594.0 595.0 Q 604.0 612.0 631.0 648.0 Q 658.0 684.0 687.5 713.0 Q 717.0 742.0 737.0 757.5 Q 757.0 773.0 763.5 776.0 L 770.0 779.0 L 788.0 766.0 Q 806.0 753.0 827.0 734.5 Q 848.0 716.0 865.0 698.0 Q 882.0 680.0 901.0 655.5 Q 920.0 631.0 935.0 607.0 Q 950.0 583.0 961.0 561.0 Q 972.0 539.0 983.0 510.5 Q 994.0 482.0 1000.5 457.0 L 1007.0 432.0 L 993.5 421.0 Q 980.0 410.0 963.0 399.5 Q 946.0 389.0 912.5 375.0 Q 879.0 361.0 846.0 354.0 Q 813.0 347.0 779.0 346.0 Q 745.0 345.0 713.5 349.5 Q 682.0 354.0 643.0 367.0 Q 604.0 380.0 575.0 395.5 Q 546.0 411.0 507.5 440.5 L 469.0 470.0 L 460.5 431.0 Q 452.0 392.0 448.0 352.0 Q 444.0 312.0 444.5 274.0 Q 445.0 236.0 457.5 228.0 Q 470.0 220.0 499.0 205.0 Q 528.0 190.0 561.5 177.0 Q 595.0 164.0 630.5 155.0 Q 666.0 146.0 706.0 141.5 Q 746.0 137.0 783.5 138.0 Z"/>
    <path fill="#F97316" fill-rule="evenodd" d="M 1022.5 198.5 Q 1047.0 210.0 1068.5 223.5 L 1090.0 237.0 L 1089.5 284.0 Q 1089.0 331.0 1084.0 371.5 L 1079.0 412.0 L 1059.5 391.0 Q 1040.0 370.0 1029.5 362.0 Q 1019.0 354.0 1021.0 317.0 L 1023.0 280.0 L 1003.5 269.5 L 984.0 259.0 L 991.0 223.0 L 998.0 187.0 L 1022.5 198.5 Z M 773.0 543.5 Q 795.0 544.0 810.0 547.0 Q 825.0 550.0 839.0 555.0 Q 853.0 560.0 869.5 569.0 L 886.0 578.0 L 875.5 594.5 Q 865.0 611.0 849.0 630.5 Q 833.0 650.0 801.0 679.5 L 769.0 709.0 L 756.5 699.5 Q 744.0 690.0 724.0 670.5 Q 704.0 651.0 689.0 633.0 Q 674.0 615.0 662.0 597.0 L 650.0 579.0 L 671.5 567.5 Q 693.0 556.0 708.0 551.5 Q 723.0 547.0 737.0 545.0 Q 751.0 543.0 773.0 543.5 Z"/>
  </g>
  <g transform="translate(725.5 191)">
    <path fill="#FFFFFF" fill-rule="evenodd" d="M 237.5 55.5 Q 247.0 57.0 253.0 65.0 Q 259.0 73.0 257.5 84.0 Q 256.0 95.0 248.5 100.5 Q 241.0 106.0 235.5 106.5 Q 230.0 107.0 224.0 105.0 Q 218.0 103.0 212.5 95.5 Q 207.0 88.0 208.5 76.5 Q 210.0 65.0 219.0 59.5 Q 228.0 54.0 237.5 55.5 Z M 911.5 154.0 Q 912.0 254.0 915.0 263.0 Q 918.0 272.0 928.5 275.5 L 939.0 279.0 L 936.0 296.5 L 933.0 314.0 L 919.5 313.0 Q 906.0 312.0 896.5 308.0 Q 887.0 304.0 880.0 295.0 Q 873.0 286.0 871.0 276.5 Q 869.0 267.0 869.0 164.0 L 869.0 61.0 L 890.0 57.5 L 911.0 54.0 L 911.5 154.0 Z M 106.5 78.0 Q 127.0 79.0 145.5 85.5 L 164.0 92.0 L 157.5 110.0 L 151.0 128.0 L 136.0 122.5 Q 121.0 117.0 102.0 117.0 Q 83.0 117.0 74.5 122.0 Q 66.0 127.0 64.5 137.0 Q 63.0 147.0 65.0 151.0 Q 67.0 155.0 72.5 159.5 Q 78.0 164.0 104.5 174.5 Q 131.0 185.0 142.5 192.0 Q 154.0 199.0 162.0 209.5 Q 170.0 220.0 172.5 236.0 Q 175.0 252.0 171.0 267.5 Q 167.0 283.0 157.0 293.0 Q 147.0 303.0 131.5 308.5 Q 116.0 314.0 93.5 315.0 Q 71.0 316.0 57.5 314.0 Q 44.0 312.0 28.0 305.5 L 12.0 299.0 L 18.0 281.5 L 24.0 264.0 L 43.0 270.0 Q 62.0 276.0 84.0 276.0 Q 106.0 276.0 112.0 273.5 Q 118.0 271.0 122.0 266.5 Q 126.0 262.0 126.5 251.0 Q 127.0 240.0 118.5 231.5 Q 110.0 223.0 85.5 213.5 Q 61.0 204.0 49.0 197.0 Q 37.0 190.0 28.5 179.0 Q 20.0 168.0 18.5 149.5 Q 17.0 131.0 20.5 121.0 Q 24.0 111.0 31.5 102.5 Q 39.0 94.0 47.5 89.0 Q 56.0 84.0 71.0 80.5 Q 86.0 77.0 106.5 78.0 Z M 384.0 134.0 Q 401.0 134.0 425.0 138.5 L 449.0 143.0 L 449.0 225.0 Q 449.0 307.0 443.5 324.5 Q 438.0 342.0 430.5 350.0 Q 423.0 358.0 409.5 364.0 Q 396.0 370.0 373.0 371.5 Q 350.0 373.0 327.0 368.0 L 304.0 363.0 L 307.5 345.0 L 311.0 327.0 L 329.0 331.5 Q 347.0 336.0 367.0 334.5 Q 387.0 333.0 392.0 330.0 Q 397.0 327.0 400.5 321.5 Q 404.0 316.0 405.0 304.0 L 406.0 292.0 L 396.0 295.5 Q 386.0 299.0 372.0 299.5 Q 358.0 300.0 347.5 297.5 Q 337.0 295.0 329.0 290.5 Q 321.0 286.0 313.5 277.5 Q 306.0 269.0 302.0 259.5 Q 298.0 250.0 296.5 227.0 Q 295.0 204.0 298.0 192.5 Q 301.0 181.0 310.5 167.5 Q 320.0 154.0 332.5 146.5 Q 345.0 139.0 356.0 136.5 Q 367.0 134.0 384.0 134.0 Z M 567.5 134.0 Q 582.0 134.0 595.0 137.0 Q 608.0 140.0 615.0 144.5 Q 622.0 149.0 627.0 155.0 Q 632.0 161.0 637.5 179.5 Q 643.0 198.0 643.0 254.5 L 643.0 311.0 L 621.5 311.0 L 600.0 311.0 L 599.5 254.0 Q 599.0 197.0 596.0 189.0 Q 593.0 181.0 589.0 177.5 Q 585.0 174.0 579.5 172.5 Q 574.0 171.0 557.0 172.0 L 540.0 173.0 L 540.0 242.0 L 540.0 311.0 L 518.5 311.0 L 497.0 311.0 L 497.0 227.5 L 497.0 144.0 L 525.0 139.0 Q 553.0 134.0 567.5 134.0 Z M 757.0 135.5 Q 782.0 137.0 790.0 140.5 Q 798.0 144.0 805.5 151.5 Q 813.0 159.0 816.5 167.5 Q 820.0 176.0 821.5 186.0 Q 823.0 196.0 823.0 251.5 L 823.0 307.0 L 796.5 311.0 Q 770.0 315.0 750.0 314.5 Q 730.0 314.0 715.0 309.0 Q 700.0 304.0 691.5 294.5 Q 683.0 285.0 681.0 278.0 Q 679.0 271.0 679.0 259.0 Q 679.0 247.0 681.5 239.5 Q 684.0 232.0 688.5 226.5 Q 693.0 221.0 700.0 216.5 Q 707.0 212.0 720.0 208.5 Q 733.0 205.0 757.0 206.0 L 781.0 207.0 L 779.5 195.5 Q 778.0 184.0 772.0 178.5 Q 766.0 173.0 749.0 171.5 Q 732.0 170.0 716.5 173.5 L 701.0 177.0 L 698.0 159.5 L 695.0 142.0 L 713.5 138.0 Q 732.0 134.0 757.0 135.5 Z M 232.5 138.0 L 254.0 138.0 L 254.0 224.5 L 254.0 311.0 L 232.5 311.0 L 211.0 311.0 L 211.0 224.5 L 211.0 138.0 L 232.5 138.0 Z M 366.5 171.5 Q 359.0 174.0 352.5 180.5 Q 346.0 187.0 342.5 197.5 Q 339.0 208.0 339.0 219.5 Q 339.0 231.0 342.5 241.0 Q 346.0 251.0 350.0 255.0 Q 354.0 259.0 359.5 261.5 Q 365.0 264.0 374.5 264.5 Q 384.0 265.0 395.0 261.0 L 406.0 257.0 L 406.0 214.0 L 406.0 171.0 L 390.0 170.0 Q 374.0 169.0 366.5 171.5 Z M 742.0 235.5 Q 735.0 237.0 729.5 241.0 Q 724.0 245.0 722.5 252.0 Q 721.0 259.0 723.5 266.0 Q 726.0 273.0 736.0 277.0 Q 746.0 281.0 763.0 280.5 L 780.0 280.0 L 780.5 258.0 L 781.0 236.0 L 765.0 235.0 Q 749.0 234.0 742.0 235.5 Z"/>
  </g>
</svg>
