<?xml version="1.0" encoding="UTF-8"?>
<svg xmlns="http://www.w3.org/2000/svg" viewBox="415 108 704 784">
  <path fill="#02315E" fill-rule="evenodd" d="M 783.5 138.0 Q 821.0 139.0 848.0 143.0 Q 875.0 147.0 907.5 155.5 Q 940.0 164.0 968.5 175.0 L 997.0 186.0 L 990.5 222.5 L 984.0 259.0 L 948.0 244.5 Q 912.0 230.0 877.0 222.0 Q 842.0 214.0 795.5 211.5 Q 749.0 209.0 716.0 212.5 Q 683.0 216.0 641.5 227.0 Q 600.0 238.0 574.0 249.0 Q 548.0 260.0 530.0 270.0 L 512.0 280.0 L 513.5 314.5 L 515.0 349.0 L 553.0 329.0 Q 591.0 309.0 631.5 296.0 Q 672.0 283.0 712.0 278.0 Q 752.0 273.0 787.5 274.5 Q 823.0 276.0 858.5 283.5 Q 894.0 291.0 916.5 299.0 Q 939.0 307.0 957.5 316.0 Q 976.0 325.0 1004.0 344.0 Q 1032.0 363.0 1055.0 387.5 Q 1078.0 412.0 1070.5 448.0 Q 1063.0 484.0 1050.0 521.0 Q 1037.0 558.0 1021.0 590.5 Q 1005.0 623.0 989.0 648.5 Q 973.0 674.0 951.5 701.5 Q 930.0 729.0 908.0 752.0 Q 886.0 775.0 859.5 797.5 Q 833.0 820.0 801.0 841.5 L 769.0 863.0 L 748.0 850.0 Q 727.0 837.0 704.0 819.5 Q 681.0 802.0 660.0 783.0 Q 639.0 764.0 620.5 744.0 Q 602.0 724.0 585.5 703.0 Q 569.0 682.0 553.0 657.5 Q 537.0 633.0 520.5 601.5 Q 504.0 570.0 497.0 552.5 L 490.0 535.0 L 516.0 512.0 Q 542.0 489.0 568.0 472.0 Q 594.0 455.0 622.5 442.0 Q 651.0 429.0 678.5 421.5 Q 706.0 414.0 725.5 411.5 Q 745.0 409.0 768.0 409.0 Q 791.0 409.0 807.5 411.0 Q 824.0 413.0 856.0 422.0 Q 888.0 431.0 914.5 444.5 L 941.0 458.0 L 937.5 470.5 Q 934.0 483.0 925.0 503.5 L 916.0 524.0 L 899.0 514.0 Q 882.0 504.0 859.0 495.5 Q 836.0 487.0 813.0 483.0 Q 790.0 479.0 768.0 479.0 Q 746.0 479.0 720.5 483.5 Q 695.0 488.0 675.5 495.0 Q 656.0 502.0 637.5 511.5 Q 619.0 521.0 596.5 537.0 L 574.0 553.0 L 579.0 565.5 Q 584.0 578.0 594.0 595.0 Q 604.0 612.0 631.0 648.0 Q 658.0 684.0 687.5 713.0 Q 717.0 742.0 737.0 757.5 Q 757.0 773.0 763.5 776.0 L 770.0 779.0 L 788.0 766.0 Q 806.0 753.0 827.0 734.5 Q 848.0 716.0 865.0 698.0 Q 882.0 680.0 901.0 655.5 Q 920.0 631.0 935.0 607.0 Q 950.0 583.0 961.0 561.0 Q 972.0 539.0 983.0 510.5 Q 994.0 482.0 1000.5 457.0 L 1007.0 432.0 L 993.5 421.0 Q 980.0 410.0 963.0 399.5 Q 946.0 389.0 912.5 375.0 Q 879.0 361.0 846.0 354.0 Q 813.0 347.0 779.0 346.0 Q 745.0 345.0 713.5 349.5 Q 682.0 354.0 643.0 367.0 Q 604.0 380.0 575.0 395.5 Q 546.0 411.0 507.5 440.5 L 469.0 470.0 L 460.5 431.0 Q 452.0 392.0 448.0 352.0 Q 444.0 312.0 444.5 274.0 Q 445.0 236.0 457.5 228.0 Q 470.0 220.0 499.0 205.0 Q 528.0 190.0 561.5 177.0 Q 595.0 164.0 630.5 155.0 Q 666.0 146.0 706.0 141.5 Q 746.0 137.0 783.5 138.0 Z"/>
  <path fill="#D65411" fill-rule="evenodd" d="M 1022.5 198.5 Q 1047.0 210.0 1068.5 223.5 L 1090.0 237.0 L 1089.5 284.0 Q 1089.0 331.0 1084.0 371.5 L 1079.0 412.0 L 1059.5 391.0 Q 1040.0 370.0 1029.5 362.0 Q 1019.0 354.0 1021.0 317.0 L 1023.0 280.0 L 1003.5 269.5 L 984.0 259.0 L 991.0 223.0 L 998.0 187.0 L 1022.5 198.5 Z M 773.0 543.5 Q 795.0 544.0 810.0 547.0 Q 825.0 550.0 839.0 555.0 Q 853.0 560.0 869.5 569.0 L 886.0 578.0 L 875.5 594.5 Q 865.0 611.0 849.0 630.5 Q 833.0 650.0 801.0 679.5 L 769.0 709.0 L 756.5 699.5 Q 744.0 690.0 724.0 670.5 Q 704.0 651.0 689.0 633.0 Q 674.0 615.0 662.0 597.0 L 650.0 579.0 L 671.5 567.5 Q 693.0 556.0 708.0 551.5 Q 723.0 547.0 737.0 545.0 Q 751.0 543.0 773.0 543.5 Z"/>
</svg>
